<svg xmlns="http://www.w3.org/2000/svg" width="17.906" height="19.098" viewBox="0 0 17.906 19.098">
  <path id="Attach" d="M9.566,15.506q.149-.131,2.982-2.926t3.318-3.3a1.19,1.19,0,0,1,.848-.335,1.172,1.172,0,0,1,.848.345,1.138,1.138,0,0,1,.354.848,1.107,1.107,0,0,1-.354.838q-.41.41-3.224,3.243t-2.964,2.964A6.6,6.6,0,0,1,4.99,18.861,6.729,6.729,0,0,1,2,17.127,6.521,6.521,0,0,1,.247,14.164a6.387,6.387,0,0,1-.019-3.383A6.45,6.45,0,0,1,1.943,7.827L8.428,1.416A4.671,4.671,0,0,1,11.858,0,4.716,4.716,0,0,1,15.3,1.407a4.6,4.6,0,0,1,1.425,3.4A4.589,4.589,0,0,1,15.305,8.2l-5.33,5.275a2.983,2.983,0,0,1-2.143.838,3,3,0,0,1-2.153-.848,2.692,2.692,0,0,1-.885-2.013A2.739,2.739,0,0,1,5.67,9.431q.317-.317,2.143-2.19T9.9,5.106a1.157,1.157,0,0,1,.848-.354,1.126,1.126,0,0,1,.838.354,1.227,1.227,0,0,1,.01,1.7q-.2.186-2.1,2.106T7.422,11.014a.558.558,0,0,0-.168.41.543.543,0,0,0,.177.41A.59.59,0,0,0,7.851,12a.623.623,0,0,0,.429-.168L13.592,6.5a2.112,2.112,0,0,0-.01-3.4,2.157,2.157,0,0,0-3.439.009L3.6,9.542a4.09,4.09,0,0,0-1.277,3.01,4.045,4.045,0,0,0,1.267,2.963,4.186,4.186,0,0,0,5.973-.009Z" transform="translate(-0.01)" fill="#7265e3"/>
</svg>
