<svg id="Health" xmlns="http://www.w3.org/2000/svg" width="19" height="18" viewBox="0 0 19 18">
  <path id="Shape" d="M15.429,18A1.631,1.631,0,0,1,14,16.222V3.778A1.632,1.632,0,0,1,15.429,2h2.143A1.633,1.633,0,0,1,19,3.778V16.222A1.632,1.632,0,0,1,17.572,18Zm-7,0A1.383,1.383,0,0,1,7,16.667V7.333A1.383,1.383,0,0,1,8.429,6h2.143A1.383,1.383,0,0,1,12,7.333v9.334A1.383,1.383,0,0,1,10.571,18Zm-7,0C.64,18,0,17.1,0,16V2C0,.9.64,0,1.428,0H3.571C4.361,0,5,.9,5,2V16c0,1.1-.64,2-1.429,2Z" fill="#898989"/>
</svg>
