<svg id="Group_4868" data-name="Group 4868" xmlns="http://www.w3.org/2000/svg" xmlns:xlink="http://www.w3.org/1999/xlink" width="60" height="60.588" viewBox="0 0 60 60.588">
  <defs>
    <clipPath id="clip-path">
      <path id="Clip_188" data-name="Clip 188" d="M26.416,34a7.579,7.579,0,0,1-5.364-2.225q-.366-.363-.731-.729L16.99,27.713l-.024.023-1.343,1.348c-.909.912-1.8,1.8-2.682,2.678a7.632,7.632,0,0,1-5.4,2.224,7.526,7.526,0,0,1-3.821-1.041A7.6,7.6,0,0,1,.764,23.095,13.181,13.181,0,0,1,3.7,19.554l.168-.162c.213-.2.434-.417.643-.626l3.571-3.571c-.18.012-.352.017-.512.017a7.548,7.548,0,0,1-4.207-1.277A7.96,7.96,0,0,1,.809,11.007,7.633,7.633,0,0,1,2.073,2.422,7.428,7.428,0,0,1,4.834.511,7.574,7.574,0,0,1,12.95,2.238c.265.262.531.53.787.789L16.99,6.285,19.63,3.64c.406-.407.886-.889,1.373-1.372A7.683,7.683,0,0,1,25.862.02c.181-.013.364-.02.545-.02A7.575,7.575,0,0,1,32.02,12.667c-.725.8-1.52,1.574-2.222,2.255-.389.378-.733.715-1.05,1.031L25.9,18.8c.17-.011.333-.016.483-.016a7.707,7.707,0,0,1,4.321,1.331,7.927,7.927,0,0,1,2.554,3.056,7.592,7.592,0,0,1-1.55,8.6A7.315,7.315,0,0,1,28.827,33.6,7.508,7.508,0,0,1,26.416,34ZM26.4,20.611a5.684,5.684,0,0,0-1.606.229,5.067,5.067,0,0,0-2.164,1.23l-4.351,4.351,4.062,4.062a5.8,5.8,0,0,0,4.052,1.687h.022a5.371,5.371,0,0,0,3.7-1.394,6.31,6.31,0,0,0,1.913-3.215,5.718,5.718,0,0,0-.734-4.17,5.923,5.923,0,0,0-2.438-2.236A5.794,5.794,0,0,0,26.4,20.611Zm-18.846,0a5.712,5.712,0,0,0-1.495.2,5.841,5.841,0,0,0-3.839,7.665,5.928,5.928,0,0,0,3.589,3.417,5.795,5.795,0,0,0,5.474-1.088A22.115,22.115,0,0,0,12.9,29.234l.162-.167c.173-.178.352-.362.529-.539l2.1-2.107-.027-.028.031-.031L12.21,22.869l-.01-.01a8.392,8.392,0,0,0-1.84-1.525A5.8,5.8,0,0,0,7.556,20.614Zm.006-1.83a7.6,7.6,0,0,1,3.705.958A12.48,12.48,0,0,1,14,22.067c.189.2.38.391.542.555l2.444,2.447L19.1,22.961c.612-.615,1.231-1.219,1.918-1.887.561-.547,1.213-1.184,1.854-1.823L26.921,15.2c-.169.011-.33.015-.478.015a7.685,7.685,0,0,1-3.6-.9,12.131,12.131,0,0,1-2.867-2.4l-.178-.181,0-.005h0c-.116-.118-.235-.241-.355-.359L16.99,8.929l-2.125,2.128c-.481.481-.973.962-1.449,1.429l-.423.415c-.595.579-1.229,1.2-1.867,1.835L7.062,18.8C7.237,18.789,7.405,18.785,7.562,18.785Zm0-16.957a5.756,5.756,0,0,0-2.42.535A5.4,5.4,0,0,0,3.556,3.52,5.8,5.8,0,0,0,1.89,8.469,6.014,6.014,0,0,0,4.3,12.36a5.716,5.716,0,0,0,5.206.7,4.814,4.814,0,0,0,1.674-.953c.156-.146.307-.3.453-.451l.058-.059c.057-.058.114-.115.171-.172L15.7,7.579,14.351,6.226l-.571-.573c-.687-.689-1.4-1.4-2.1-2.1A5.827,5.827,0,0,0,7.626,1.829Zm18.848,0a5.819,5.819,0,0,0-1.13.11,6.284,6.284,0,0,0-3.257,1.9L18.281,7.58l.031.029-.031.029,1.346,1.346L19.644,9c.866.866,1.761,1.762,2.644,2.642a5.836,5.836,0,0,0,4.14,1.72,5.52,5.52,0,0,0,3.937-1.615A5.87,5.87,0,0,0,32.142,8,5.98,5.98,0,0,0,30.2,3.3,5.446,5.446,0,0,0,26.41,1.832Z" transform="translate(0)" fill="#7074df"/>
    </clipPath>
  </defs>
  <g id="add_button" data-name="add button">
    <ellipse id="Oval_2" data-name="Oval 2" cx="30" cy="30.294" rx="30" ry="30.294" fill="#fff"/>
  </g>
  <g id="Group_189" data-name="Group 189" transform="translate(13 13.589)">
    <path id="Clip_188-2" data-name="Clip 188" d="M26.416,34a7.579,7.579,0,0,1-5.364-2.225q-.366-.363-.731-.729L16.99,27.713l-.024.023-1.343,1.348c-.909.912-1.8,1.8-2.682,2.678a7.632,7.632,0,0,1-5.4,2.224,7.526,7.526,0,0,1-3.821-1.041A7.6,7.6,0,0,1,.764,23.095,13.181,13.181,0,0,1,3.7,19.554l.168-.162c.213-.2.434-.417.643-.626l3.571-3.571c-.18.012-.352.017-.512.017a7.548,7.548,0,0,1-4.207-1.277A7.96,7.96,0,0,1,.809,11.007,7.633,7.633,0,0,1,2.073,2.422,7.428,7.428,0,0,1,4.834.511,7.574,7.574,0,0,1,12.95,2.238c.265.262.531.53.787.789L16.99,6.285,19.63,3.64c.406-.407.886-.889,1.373-1.372A7.683,7.683,0,0,1,25.862.02c.181-.013.364-.02.545-.02A7.575,7.575,0,0,1,32.02,12.667c-.725.8-1.52,1.574-2.222,2.255-.389.378-.733.715-1.05,1.031L25.9,18.8c.17-.011.333-.016.483-.016a7.707,7.707,0,0,1,4.321,1.331,7.927,7.927,0,0,1,2.554,3.056,7.592,7.592,0,0,1-1.55,8.6A7.315,7.315,0,0,1,28.827,33.6,7.508,7.508,0,0,1,26.416,34ZM26.4,20.611a5.684,5.684,0,0,0-1.606.229,5.067,5.067,0,0,0-2.164,1.23l-4.351,4.351,4.062,4.062a5.8,5.8,0,0,0,4.052,1.687h.022a5.371,5.371,0,0,0,3.7-1.394,6.31,6.31,0,0,0,1.913-3.215,5.718,5.718,0,0,0-.734-4.17,5.923,5.923,0,0,0-2.438-2.236A5.794,5.794,0,0,0,26.4,20.611Zm-18.846,0a5.712,5.712,0,0,0-1.495.2,5.841,5.841,0,0,0-3.839,7.665,5.928,5.928,0,0,0,3.589,3.417,5.795,5.795,0,0,0,5.474-1.088A22.115,22.115,0,0,0,12.9,29.234l.162-.167c.173-.178.352-.362.529-.539l2.1-2.107-.027-.028.031-.031L12.21,22.869l-.01-.01a8.392,8.392,0,0,0-1.84-1.525A5.8,5.8,0,0,0,7.556,20.614Zm.006-1.83a7.6,7.6,0,0,1,3.705.958A12.48,12.48,0,0,1,14,22.067c.189.2.38.391.542.555l2.444,2.447L19.1,22.961c.612-.615,1.231-1.219,1.918-1.887.561-.547,1.213-1.184,1.854-1.823L26.921,15.2c-.169.011-.33.015-.478.015a7.685,7.685,0,0,1-3.6-.9,12.131,12.131,0,0,1-2.867-2.4l-.178-.181,0-.005h0c-.116-.118-.235-.241-.355-.359L16.99,8.929l-2.125,2.128c-.481.481-.973.962-1.449,1.429l-.423.415c-.595.579-1.229,1.2-1.867,1.835L7.062,18.8C7.237,18.789,7.405,18.785,7.562,18.785Zm0-16.957a5.756,5.756,0,0,0-2.42.535A5.4,5.4,0,0,0,3.556,3.52,5.8,5.8,0,0,0,1.89,8.469,6.014,6.014,0,0,0,4.3,12.36a5.716,5.716,0,0,0,5.206.7,4.814,4.814,0,0,0,1.674-.953c.156-.146.307-.3.453-.451l.058-.059c.057-.058.114-.115.171-.172L15.7,7.579,14.351,6.226l-.571-.573c-.687-.689-1.4-1.4-2.1-2.1A5.827,5.827,0,0,0,7.626,1.829Zm18.848,0a5.819,5.819,0,0,0-1.13.11,6.284,6.284,0,0,0-3.257,1.9L18.281,7.58l.031.029-.031.029,1.346,1.346L19.644,9c.866.866,1.761,1.762,2.644,2.642a5.836,5.836,0,0,0,4.14,1.72,5.52,5.52,0,0,0,3.937-1.615A5.87,5.87,0,0,0,32.142,8,5.98,5.98,0,0,0,30.2,3.3,5.446,5.446,0,0,0,26.41,1.832Z" fill="#544188"/>
    <g id="Mask_Group_22" data-name="Mask Group 22" clip-path="url(#clip-path)">
      <path id="Fill_187" data-name="Fill 187" d="M26.416,34a7.579,7.579,0,0,1-5.364-2.225q-.366-.363-.731-.729L16.99,27.713l-.024.023-1.343,1.348c-.909.912-1.8,1.8-2.682,2.678a7.632,7.632,0,0,1-5.4,2.224,7.526,7.526,0,0,1-3.821-1.041A7.6,7.6,0,0,1,.764,23.095,13.181,13.181,0,0,1,3.7,19.554l.168-.162c.213-.2.434-.417.643-.626l3.571-3.571c-.18.012-.352.017-.512.017a7.548,7.548,0,0,1-4.207-1.277A7.96,7.96,0,0,1,.809,11.007,7.633,7.633,0,0,1,2.073,2.422,7.428,7.428,0,0,1,4.834.511,7.574,7.574,0,0,1,12.95,2.238c.265.262.531.53.787.789L16.99,6.285,19.63,3.64c.406-.407.886-.889,1.373-1.372A7.683,7.683,0,0,1,25.862.02c.181-.013.364-.02.545-.02A7.575,7.575,0,0,1,32.02,12.667c-.725.8-1.52,1.574-2.222,2.255-.389.378-.733.715-1.05,1.031L25.9,18.8c.17-.011.333-.016.483-.016a7.707,7.707,0,0,1,4.321,1.331,7.927,7.927,0,0,1,2.554,3.056,7.592,7.592,0,0,1-1.55,8.6A7.315,7.315,0,0,1,28.827,33.6,7.508,7.508,0,0,1,26.416,34ZM26.4,20.611a5.684,5.684,0,0,0-1.606.229,5.067,5.067,0,0,0-2.164,1.23l-4.351,4.351,4.062,4.062a5.8,5.8,0,0,0,4.052,1.687h.022a5.371,5.371,0,0,0,3.7-1.394,6.31,6.31,0,0,0,1.913-3.215,5.718,5.718,0,0,0-.734-4.17,5.923,5.923,0,0,0-2.438-2.236A5.794,5.794,0,0,0,26.4,20.611Zm-18.846,0a5.712,5.712,0,0,0-1.495.2,5.841,5.841,0,0,0-3.839,7.665,5.928,5.928,0,0,0,3.589,3.417,5.795,5.795,0,0,0,5.474-1.088A22.115,22.115,0,0,0,12.9,29.234l.162-.167c.173-.178.352-.362.529-.539l2.1-2.107-.027-.028.031-.031L12.21,22.869l-.01-.01a8.392,8.392,0,0,0-1.84-1.525A5.8,5.8,0,0,0,7.556,20.614Zm.006-1.83a7.6,7.6,0,0,1,3.705.958A12.48,12.48,0,0,1,14,22.067c.189.2.38.391.542.555l2.444,2.447L19.1,22.961c.612-.615,1.231-1.219,1.918-1.887.561-.547,1.213-1.184,1.854-1.823L26.921,15.2c-.169.011-.33.015-.478.015a7.685,7.685,0,0,1-3.6-.9,12.131,12.131,0,0,1-2.867-2.4l-.178-.181,0-.005h0c-.116-.118-.235-.241-.355-.359L16.99,8.929l-2.125,2.128c-.481.481-.973.962-1.449,1.429l-.423.415c-.595.579-1.229,1.2-1.867,1.835L7.062,18.8C7.237,18.789,7.405,18.785,7.562,18.785Zm0-16.957a5.756,5.756,0,0,0-2.42.535A5.4,5.4,0,0,0,3.556,3.52,5.8,5.8,0,0,0,1.89,8.469,6.014,6.014,0,0,0,4.3,12.36a5.716,5.716,0,0,0,5.206.7,4.814,4.814,0,0,0,1.674-.953c.156-.146.307-.3.453-.451l.058-.059c.057-.058.114-.115.171-.172L15.7,7.579,14.351,6.226l-.571-.573c-.687-.689-1.4-1.4-2.1-2.1A5.827,5.827,0,0,0,7.626,1.829Zm18.848,0a5.819,5.819,0,0,0-1.13.11,6.284,6.284,0,0,0-3.257,1.9L18.281,7.58l.031.029-.031.029,1.346,1.346L19.644,9c.866.866,1.761,1.762,2.644,2.642a5.836,5.836,0,0,0,4.14,1.72,5.52,5.52,0,0,0,3.937-1.615A5.87,5.87,0,0,0,32.142,8,5.98,5.98,0,0,0,30.2,3.3,5.446,5.446,0,0,0,26.41,1.832Z" fill="#544188"/>
    </g>
  </g>
</svg>
