<svg xmlns="http://www.w3.org/2000/svg" width="20.428" height="18.884" viewBox="0 0 20.428 18.884">
  <path id="House" d="M10.882.636a.965.965,0,0,0-1.337,0h0L.292,10.24A1.026,1.026,0,0,0,0,10.952v6.933a1.416,1.416,0,0,0,1.459,1.367H5.837A1.416,1.416,0,0,0,7.3,17.885V12.418a1.416,1.416,0,0,1,1.459-1.367h2.918a1.416,1.416,0,0,1,1.459,1.367v5.467a1.416,1.416,0,0,0,1.459,1.367h4.377a1.416,1.416,0,0,0,1.459-1.367V10.952a1.026,1.026,0,0,0-.292-.712Z" transform="translate(0 -0.367)" fill="#898989"/>
</svg>
