<svg xmlns="http://www.w3.org/2000/svg" width="25.107" height="17.142" viewBox="0 0 25.107 17.142">
  <path id="two-coins-svgrepo-com" d="M33.2,95.01a14.88,14.88,0,0,0-6.612,1.815,14.89,14.89,0,0,0-5.281,4.376c-1.089,1.555-1.383,3-.848,4.035s1.892,1.618,3.792,1.618a14.874,14.874,0,0,0,6.612-1.81,14.9,14.9,0,0,0,5.281-4.376c1.091-1.555,1.379-3,.846-4.035S35.1,95.01,33.2,95.01Zm4.893,3.742a7.186,7.186,0,0,1-1.161,2.465,15.75,15.75,0,0,1-5.627,4.674,15.743,15.743,0,0,1-7.054,1.927,7.178,7.178,0,0,1-2.682-.463l.564,1.086c.537,1.033,1.888,1.624,3.789,1.624a14.888,14.888,0,0,0,6.612-1.815,14.786,14.786,0,0,0,5.281-4.376c1.086-1.555,1.384-3,.846-4.03Zm1.533.894c.6,1.421.117,3.152-1.022,4.775a14.986,14.986,0,0,1-4.451,4.014,17.16,17.16,0,0,0,1.837.1,14.9,14.9,0,0,0,6.7-1.443c1.688-.878,2.614-2.028,2.614-3.189s-.926-2.311-2.614-3.189a12.244,12.244,0,0,0-3.067-1.065Zm5.681,6.644a7.26,7.26,0,0,1-2.167,1.65,15.792,15.792,0,0,1-7.15,1.549,18.493,18.493,0,0,1-3.232-.277,18.12,18.12,0,0,1-3.668,1.39c.064.037.128.069.2.106a14.9,14.9,0,0,0,6.7,1.443,14.9,14.9,0,0,0,6.7-1.443c1.688-.878,2.614-2.028,2.614-3.189Z" transform="translate(-20.199 -95.01)" fill="#7074df"/>
</svg>
